<?xml version="1.0" encoding="UTF-8" standalone="no"?>
<!DOCTYPE svg PUBLIC "-//W3C//DTD SVG 1.0//EN" "http://www.w3.org/TR/2001/REC-SVG-20010904/DTD/svg10.dtd">
<!-- Created with Inkscape (http://www.inkscape.org/) by Steadfast-->
<svg
   xmlns:svg="http://www.w3.org/2000/svg"
   xmlns="http://www.w3.org/2000/svg"
   version="1.0"
   width="900"
   height="325"
   id="svg4609">
  <defs
     id="defs4611">
    <clipPath
       id="clipPath617">
      <path
         d="M 343.417,613.914 L 345.118,609.766 L 345.638,609.246 L 342.376,609.246 C 341.069,609.243 339.711,607.884 339.711,606.674 C 339.711,605.984 340.055,604.846 341.183,604.84 C 341.183,604.84 334.477,601.993 334.477,604.9 C 334.477,609.017 338.366,613.921 343.417,613.914"
         id="path619" />
    </clipPath>
  </defs>
  <g
     id="layer1">
    <g
       transform="matrix(12.781409,0,0,12.781409,-3548.7551,-1401.4611)"
       id="g4707">
      <path
         d="M 313.00214,132.15031 L 313.21089,131.18406 L 312.68089,131.18406 L 312.92339,130.09531 L 311.93089,130.09531 L 311.69589,131.18406 L 311.26839,131.18406 L 311.05964,132.15031 L 311.48089,132.15031 L 310.94839,134.58656 L 311.93464,134.58656 L 312.47339,132.15031 L 313.00214,132.15031"
         id="path507"
         style="fill:#bdbcbc;fill-opacity:1;fill-rule:nonzero;stroke:none" />
      <path
         d="M 315.97464,133.14031 C 315.99964,132.98781 316.01339,132.91906 316.02339,132.83531 C 316.15839,131.73906 315.72089,131.08406 314.85464,131.08406 C 313.91714,131.08406 313.17714,131.87656 313.03589,133.02531 C 312.90964,134.06031 313.35589,134.68531 314.22839,134.68531 C 314.68464,134.68531 315.08964,134.52531 315.39089,134.22031 C 315.59089,134.01531 315.68214,133.86281 315.85839,133.45156 L 314.77589,133.45156 C 314.70339,133.69531 314.57089,133.80156 314.35339,133.80156 C 314.02964,133.80156 313.90964,133.60406 313.96589,133.14031 L 315.97464,133.14031 z M 314.11839,132.43156 C 314.22214,132.08156 314.41214,131.90656 314.67589,131.90656 C 314.94714,131.90656 315.08089,132.08906 315.05714,132.43156 L 314.11839,132.43156"
         id="path509"
         style="fill:#bdbcbc;fill-opacity:1;fill-rule:evenodd;stroke:none" />
      <path
         d="M 317.95964,131.08406 C 317.09964,131.08406 316.37589,131.89156 316.24089,132.99531 C 316.11964,133.98531 316.56339,134.68531 317.31464,134.68531 C 317.54339,134.68531 317.68589,134.64656 318.04714,134.50281 L 318.27964,133.43656 C 318.03839,133.63406 317.89839,133.69531 317.71839,133.69531 C 317.37589,133.69531 317.19964,133.41406 317.25464,132.96531 C 317.31839,132.44656 317.62839,132.07406 318.00089,132.07406 C 318.21214,132.07406 318.34589,132.15781 318.51089,132.37906 L 318.74339,131.32031 C 318.50339,131.16031 318.25464,131.08406 317.95964,131.08406"
         id="path511"
         style="fill:#bdbcbc;fill-opacity:1;fill-rule:nonzero;stroke:none" />
      <path
         d="M 319.69964,129.03656 L 318.47839,134.58656 L 319.47089,134.58656 L 319.82464,132.97281 C 319.96089,132.34781 320.12714,132.12781 320.44589,132.12781 C 320.69214,132.12781 320.78464,132.30281 320.73964,132.66781 C 320.72464,132.79781 320.70839,132.88156 320.62964,133.22406 L 320.33089,134.58656 L 321.32339,134.58656 L 321.70464,132.85031 C 321.75714,132.61406 321.79089,132.43156 321.80839,132.28781 C 321.90339,131.51156 321.64964,131.08406 321.08464,131.08406 C 320.76589,131.08406 320.52339,131.19156 320.15089,131.48781 L 320.69089,129.03656 L 319.69964,129.03656"
         id="path513"
         style="fill:#bdbcbc;fill-opacity:1;fill-rule:nonzero;stroke:none" />
      <path
         d="M 322.61339,131.18406 L 321.86714,134.58656 L 322.85839,134.58656 L 323.19714,133.04906 C 323.34589,132.37156 323.51464,132.12781 323.83339,132.12781 C 324.06214,132.12781 324.17089,132.31781 324.12839,132.66781 C 324.11339,132.79031 324.09464,132.88906 324.05214,133.08656 L 323.71839,134.58656 L 324.71089,134.58656 L 325.13089,132.67531 C 325.18464,132.43906 325.21214,132.26406 325.22964,132.12031 C 325.31089,131.45031 325.05589,131.08406 324.50839,131.08406 C 324.14089,131.08406 323.88464,131.21406 323.46839,131.62531 L 323.60589,131.18406 L 322.61339,131.18406"
         id="path515"
         style="fill:#bdbcbc;fill-opacity:1;fill-rule:nonzero;stroke:none" />
      <path
         d="M 327.13339,129.15906 C 326.79714,129.15906 326.48589,129.48656 326.43589,129.89781 C 326.38464,130.31531 326.60839,130.65031 326.93964,130.65031 C 327.26339,130.65031 327.56339,130.31531 327.61589,129.88906 C 327.66464,129.48656 327.44589,129.15906 327.13339,129.15906 z M 326.24214,131.18406 L 325.49464,134.58656 L 326.48714,134.58656 L 327.23464,131.18406 L 326.24214,131.18406"
         id="path517"
         style="fill:#bdbcbc;fill-opacity:1;fill-rule:evenodd;stroke:none" />
      <path
         d="M 328.24589,129.03656 L 327.02589,134.58656 L 328.01839,134.58656 L 328.36964,132.98781 C 328.56464,133.41406 328.69464,133.67281 328.88839,134.01531 L 329.21464,134.58656 L 330.42339,134.58656 L 329.39339,132.73656 L 330.75589,131.18406 L 329.50464,131.18406 L 328.49589,132.40156 L 329.23839,129.03656 L 328.24589,129.03656"
         id="path519"
         style="fill:#bdbcbc;fill-opacity:1;fill-rule:nonzero;stroke:none" />
      <path
         d="M 313.70214,123.60156 C 312.84214,123.60156 312.11839,124.40906 311.98339,125.51281 C 311.86214,126.50156 312.30464,127.20156 313.05714,127.20156 C 313.28464,127.20156 313.42839,127.16406 313.78839,127.01906 L 314.02089,125.95406 C 313.78089,126.15156 313.64089,126.21281 313.46089,126.21281 C 313.11714,126.21281 312.94214,125.93031 312.99714,125.48156 C 313.05964,124.96406 313.37089,124.59156 313.74339,124.59156 C 313.95339,124.59156 314.08839,124.67531 314.25339,124.89531 L 314.48464,123.83781 C 314.24589,123.67781 313.99714,123.60156 313.70214,123.60156"
         id="path521"
         style="fill:#bdbcbc;fill-opacity:1;fill-rule:nonzero;stroke:none" />
      <path
         d="M 316.27964,123.60156 C 315.31714,123.60156 314.54464,124.35531 314.41589,125.41281 C 314.28464,126.48656 314.84589,127.20156 315.80839,127.20156 C 316.74589,127.20156 317.48839,126.44031 317.62339,125.34531 C 317.75339,124.28656 317.22339,123.60156 316.27964,123.60156 z M 315.87464,126.22031 C 315.54339,126.22031 315.36214,125.93906 315.41464,125.50406 C 315.47839,124.98656 315.80339,124.59156 316.16964,124.59156 C 316.50089,124.59156 316.67214,124.86531 316.61839,125.29906 C 316.55339,125.83156 316.24089,126.22031 315.87464,126.22031"
         id="path523"
         style="fill:#bdbcbc;fill-opacity:1;fill-rule:evenodd;stroke:none" />
      <path
         d="M 318.44464,123.70031 L 317.69714,127.10281 L 318.68964,127.10281 L 319.04464,125.48156 C 319.16839,124.91031 319.35714,124.64406 319.64589,124.64406 C 319.85089,124.64406 319.95214,124.79656 319.92214,125.04031 C 319.91339,125.11656 319.89589,125.20781 319.86964,125.32906 L 319.47714,127.10281 L 320.46964,127.10281 L 320.82464,125.48156 C 320.95964,124.86531 321.11964,124.64406 321.43839,124.64406 C 321.64214,124.64406 321.74839,124.81156 321.71464,125.08656 C 321.70714,125.14656 321.67464,125.31406 321.64714,125.44406 L 321.28214,127.10281 L 322.26839,127.10281 L 322.66714,125.31406 C 322.76089,124.88781 322.78589,124.74281 322.80339,124.59156 C 322.87714,123.99031 322.59464,123.60156 322.07714,123.60156 C 321.69214,123.60156 321.39589,123.76156 321.00714,124.18781 C 320.88589,123.75406 320.69464,123.60156 320.29714,123.60156 C 319.91214,123.60156 319.64839,123.74656 319.30339,124.15781 L 319.43714,123.70031 L 318.44464,123.70031"
         id="path525"
         style="fill:#bdbcbc;fill-opacity:1;fill-rule:nonzero;stroke:none" />
      <path
         d="M 323.64964,123.70031 L 322.49214,128.98281 L 323.47839,128.98281 L 324.01964,126.52406 C 324.22589,126.99656 324.49589,127.20156 324.90464,127.20156 C 325.67464,127.20156 326.28089,126.42531 326.42464,125.24531 C 326.54839,124.23281 326.19964,123.60156 325.51964,123.60156 C 325.17089,123.60156 324.90714,123.73906 324.51089,124.13406 L 324.64214,123.70031 L 323.64964,123.70031 z M 324.66464,126.22031 C 324.33964,126.22031 324.16339,125.93906 324.21589,125.50406 C 324.27964,124.98656 324.59839,124.59156 324.96589,124.59156 C 325.29089,124.59156 325.46089,124.86531 325.40839,125.29906 C 325.34339,125.83156 325.03089,126.22031 324.66464,126.22031"
         id="path527"
         style="fill:#bdbcbc;fill-opacity:1;fill-rule:evenodd;stroke:none" />
      <path
         d="M 329.11464,123.70031 L 328.72339,125.47406 C 328.61464,125.96906 328.45339,126.15906 328.14089,126.15906 C 327.88214,126.15906 327.75589,126.00656 327.79214,125.71781 C 327.79839,125.65656 327.82714,125.52781 327.86964,125.32156 L 328.22464,123.70031 L 327.23839,123.70031 L 326.86214,125.39781 C 326.82089,125.58781 326.79714,125.74031 326.78214,125.86281 C 326.67589,126.72281 327.10464,127.20156 327.96464,127.20156 C 328.45214,127.20156 328.87214,127.05781 329.15089,126.79156 C 329.40339,126.55531 329.55339,126.20531 329.71214,125.49656 L 330.10089,123.70031 L 329.11464,123.70031"
         id="path529"
         style="fill:#bdbcbc;fill-opacity:1;fill-rule:nonzero;stroke:none" />
      <path
         d="M 332.13464,124.66781 L 332.34339,123.70031 L 331.81464,123.70031 L 332.05589,122.61156 L 331.06339,122.61156 L 330.82839,123.70031 L 330.40089,123.70031 L 330.19214,124.66781 L 330.61339,124.66781 L 330.08089,127.10281 L 331.06714,127.10281 L 331.60589,124.66781 L 332.13464,124.66781"
         id="path531"
         style="fill:#bdbcbc;fill-opacity:1;fill-rule:nonzero;stroke:none" />
      <path
         d="M 335.16714,125.65656 C 335.19214,125.50406 335.20714,125.43656 335.21714,125.35281 C 335.35089,124.25656 334.91464,123.60156 334.04839,123.60156 C 333.10964,123.60156 332.36964,124.39281 332.22964,125.54281 C 332.10214,126.57781 332.54839,127.20156 333.42089,127.20156 C 333.87839,127.20156 334.28214,127.04156 334.58464,126.73781 C 334.78339,126.53156 334.87464,126.38031 335.05089,125.96906 L 333.96839,125.96906 C 333.89714,126.21281 333.76339,126.31906 333.54714,126.31906 C 333.22214,126.31906 333.10214,126.12156 333.15964,125.65656 L 335.16714,125.65656 z M 333.31214,124.94906 C 333.41464,124.59906 333.60464,124.42406 333.86964,124.42406 C 334.13964,124.42406 334.27464,124.60656 334.24964,124.94906 L 333.31214,124.94906"
         id="path533"
         style="fill:#bdbcbc;fill-opacity:1;fill-rule:evenodd;stroke:none" />
      <path
         d="M 336.02839,123.70031 L 335.28089,127.10281 L 336.27339,127.10281 L 336.58839,125.65656 C 336.74589,124.96406 336.93839,124.72031 337.34714,124.72031 C 337.52089,124.72031 337.63589,124.76656 337.77964,124.87281 L 338.02964,123.71531 C 337.94589,123.70781 337.88089,123.70031 337.83839,123.70031 C 337.45964,123.70031 337.23464,123.81406 336.88589,124.16531 L 337.02089,123.70031 L 336.02839,123.70031"
         id="path535"
         style="fill:#bdbcbc;fill-opacity:1;fill-rule:nonzero;stroke:none" />
      <path
         d="M 313.85714,116.50156 L 313.10964,119.90406 L 314.10214,119.90406 L 314.45714,118.28281 C 314.58089,117.71156 314.76964,117.44531 315.05839,117.44531 C 315.26339,117.44531 315.36464,117.59781 315.33464,117.84156 C 315.32589,117.91656 315.30839,118.00781 315.28089,118.13031 L 314.88964,119.90406 L 315.88214,119.90406 L 316.23714,118.28281 C 316.37214,117.66531 316.53214,117.44531 316.85089,117.44531 C 317.05464,117.44531 317.16089,117.61281 317.12714,117.88656 C 317.11964,117.94781 317.08714,118.11531 317.05964,118.24406 L 316.69339,119.90406 L 317.67964,119.90406 L 318.07964,118.11531 C 318.17339,117.68906 318.19714,117.54406 318.21589,117.39156 C 318.28964,116.79031 318.00589,116.40281 317.48964,116.40281 C 317.10464,116.40281 316.80839,116.56156 316.41964,116.98781 C 316.29839,116.55406 316.10589,116.40281 315.70964,116.40281 C 315.32464,116.40281 315.05964,116.54656 314.71589,116.95781 L 314.84964,116.50156 L 313.85714,116.50156"
         id="path537"
         style="fill:#bdbcbc;fill-opacity:1;fill-rule:nonzero;stroke:none" />
      <path
         d="M 321.06464,116.50156 L 321.01089,116.88906 C 320.76714,116.51656 320.57714,116.40281 320.19839,116.40281 C 319.38589,116.40281 318.68214,117.24781 318.54089,118.39656 C 318.42089,119.37906 318.78339,120.00281 319.46339,120.00281 C 319.83589,120.00281 320.08464,119.88031 320.43464,119.53031 L 320.31714,119.90406 L 321.30964,119.90406 L 322.05589,116.50156 L 321.06464,116.50156 z M 320.01589,119.02031 C 319.68589,119.02031 319.50964,118.73906 319.56214,118.30531 C 319.62589,117.78781 319.95089,117.39156 320.31214,117.39156 C 320.63589,117.39156 320.80714,117.66531 320.75464,118.10031 C 320.68839,118.63281 320.37714,119.02031 320.01589,119.02031"
         id="path539"
         style="fill:#bdbcbc;fill-opacity:1;fill-rule:evenodd;stroke:none" />
      <path
         d="M 324.68464,116.50156 L 324.60589,116.99656 C 324.38339,116.56156 324.14964,116.40281 323.76464,116.40281 C 322.97089,116.40281 322.31464,117.19406 322.17839,118.31281 C 322.05089,119.34781 322.42839,120.00281 323.15589,120.00281 C 323.46839,120.00281 323.66839,119.89656 323.99839,119.55406 L 323.88714,120.07156 C 323.76714,120.61156 323.55214,120.84031 323.17964,120.84031 C 322.89089,120.84031 322.73089,120.68031 322.73089,120.38281 L 321.78589,120.38281 C 321.77339,120.93156 321.81714,121.16031 322.01464,121.41906 C 322.22089,121.70031 322.55339,121.82906 323.05839,121.82906 C 323.60589,121.82906 324.00964,121.67781 324.31464,121.35031 C 324.59964,121.03031 324.77464,120.58156 324.97839,119.65281 L 325.67089,116.50156 L 324.68464,116.50156 z M 323.64339,119.01281 C 323.31964,119.01281 323.13964,118.71656 323.19464,118.25906 C 323.25714,117.74906 323.54714,117.39156 323.89714,117.39156 C 324.22089,117.39156 324.38589,117.66531 324.33214,118.10781 C 324.26464,118.65531 323.99214,119.01281 323.64339,119.01281"
         id="path541"
         style="fill:#bdbcbc;fill-opacity:1;fill-rule:evenodd;stroke:none" />
      <path
         d="M 328.21339,116.50156 L 328.15964,116.88906 C 327.91714,116.51656 327.72589,116.40281 327.34714,116.40281 C 326.53589,116.40281 325.83089,117.24781 325.68964,118.39656 C 325.56964,119.37906 325.93214,120.00281 326.61214,120.00281 C 326.98464,120.00281 327.23464,119.88031 327.58339,119.53031 L 327.46589,119.90406 L 328.45839,119.90406 L 329.20589,116.50156 L 328.21339,116.50156 z M 327.16589,119.02031 C 326.83464,119.02031 326.65839,118.73906 326.71214,118.30531 C 326.77464,117.78781 327.09964,117.39156 327.46089,117.39156 C 327.78589,117.39156 327.95714,117.66531 327.90339,118.10031 C 327.83839,118.63281 327.52589,119.02031 327.16589,119.02031"
         id="path543"
         style="fill:#bdbcbc;fill-opacity:1;fill-rule:evenodd;stroke:none" />
      <path
         d="M 330.92839,118.93656 L 332.86839,116.50156 L 330.03089,116.50156 L 329.78589,117.46781 L 330.95839,117.46781 L 329.00089,119.90406 L 331.98339,119.90406 L 332.22839,118.93656 L 330.92839,118.93656"
         id="path545"
         style="fill:#bdbcbc;fill-opacity:1;fill-rule:nonzero;stroke:none" />
      <path
         d="M 334.18339,114.47656 C 333.84589,114.47656 333.53589,114.80406 333.48589,115.21531 C 333.43464,115.63406 333.65839,115.96906 333.98839,115.96906 C 334.31339,115.96906 334.61339,115.63406 334.66464,115.20781 C 334.71464,114.80406 334.49589,114.47656 334.18339,114.47656 z M 333.29214,116.50156 L 332.54464,119.90406 L 333.53714,119.90406 L 334.28464,116.50156 L 333.29214,116.50156"
         id="path547"
         style="fill:#bdbcbc;fill-opacity:1;fill-rule:evenodd;stroke:none" />
      <path
         d="M 334.82214,116.50156 L 334.07589,119.90406 L 335.06714,119.90406 L 335.40589,118.36656 C 335.55464,117.68906 335.72339,117.44531 336.04214,117.44531 C 336.27089,117.44531 336.37964,117.63531 336.33714,117.98531 C 336.32214,118.10781 336.30339,118.20656 336.26089,118.40406 L 335.92714,119.90406 L 336.91964,119.90406 L 337.33964,117.99281 C 337.39339,117.75781 337.42089,117.58156 337.43839,117.43781 C 337.51964,116.76781 337.26464,116.40281 336.71714,116.40281 C 336.34964,116.40281 336.09339,116.53156 335.67714,116.94281 L 335.81464,116.50156 L 334.82214,116.50156"
         id="path549"
         style="fill:#bdbcbc;fill-opacity:1;fill-rule:nonzero;stroke:none" />
      <path
         d="M 341.34089,117.46781 L 341.54964,116.50156 L 340.87589,116.50156 L 341.00964,115.90031 C 341.09339,115.50406 341.22964,115.32906 341.45839,115.32906 C 341.58464,115.32906 341.66339,115.37531 341.76839,115.49656 L 342.00714,114.43031 C 341.78714,114.30906 341.61839,114.26281 341.39589,114.26281 C 340.74089,114.26281 340.26464,114.76531 340.06714,115.68656 L 339.88964,116.50156 L 339.46839,116.50156 L 339.25964,117.46781 L 339.67464,117.46781 L 339.13589,119.90406 L 340.12839,119.90406 L 340.66714,117.46781 L 341.34089,117.46781"
         id="path551"
         style="fill:#bdbcbc;fill-opacity:1;fill-rule:nonzero;stroke:none" />
      <path
         d="M 343.74964,116.50156 L 343.35714,118.27531 C 343.24839,118.76906 343.08714,118.96031 342.77464,118.96031 C 342.51589,118.96031 342.39089,118.80781 342.42589,118.51906 C 342.43339,118.45781 342.46089,118.32781 342.50464,118.12281 L 342.85839,116.50156 L 341.87339,116.50156 L 341.49714,118.19906 C 341.45464,118.38906 341.43089,118.54156 341.41589,118.66281 C 341.31089,119.52281 341.73839,120.00281 342.59839,120.00281 C 343.08589,120.00281 343.50589,119.85781 343.78589,119.59156 C 344.03714,119.35531 344.18839,119.00531 344.34714,118.29781 L 344.73464,116.50156 L 343.74964,116.50156 z M 344.21964,114.67406 C 343.94839,114.67406 343.69839,114.94781 343.65839,115.27531 C 343.61589,115.61781 343.80589,115.89281 344.07589,115.89281 C 344.34089,115.89281 344.58339,115.62531 344.62589,115.28406 C 344.66589,114.95656 344.47839,114.67406 344.21964,114.67406 z M 343.00464,114.67406 C 342.73339,114.67406 342.48464,114.94031 342.44339,115.27531 C 342.40089,115.62531 342.58464,115.89281 342.85589,115.89281 C 343.12589,115.89281 343.36964,115.62531 343.41089,115.28406 C 343.45214,114.94781 343.26964,114.67406 343.00464,114.67406"
         id="path553"
         style="fill:#bdbcbc;fill-opacity:1;fill-rule:evenodd;stroke:none" />
      <path
         d="M 345.28214,116.50156 L 344.53464,119.90406 L 345.52714,119.90406 L 345.84214,118.45781 C 345.99839,117.76531 346.19089,117.52156 346.59964,117.52156 C 346.77464,117.52156 346.88964,117.56656 347.03214,117.67406 L 347.28214,116.51656 C 347.19964,116.50906 347.13339,116.50156 347.09214,116.50156 C 346.71339,116.50156 346.48839,116.61531 346.13839,116.96531 L 346.27464,116.50156 L 345.28214,116.50156"
         id="path555"
         style="fill:#bdbcbc;fill-opacity:1;fill-rule:nonzero;stroke:none" />
      <path
         d="M 312.71589,131.81656 L 312.92464,130.84906 L 312.39464,130.84906 L 312.63714,129.76156 L 311.64464,129.76156 L 311.40839,130.84906 L 310.98214,130.84906 L 310.77339,131.81656 L 311.19464,131.81656 L 310.66214,134.25156 L 311.64839,134.25156 L 312.18589,131.81656 L 312.71589,131.81656"
         id="path557"
         style="fill:#231f20;fill-opacity:1;fill-rule:nonzero;stroke:none" />
      <path
         d="M 315.68839,132.80531 C 315.71339,132.65406 315.72714,132.58531 315.73714,132.50156 C 315.87214,131.40531 315.43464,130.75031 314.56839,130.75031 C 313.63089,130.75031 312.88964,131.54156 312.74964,132.69156 C 312.62339,133.72656 313.06964,134.35031 313.94089,134.35031 C 314.39839,134.35031 314.80339,134.19156 315.10464,133.88656 C 315.30464,133.68156 315.39464,133.52906 315.57214,133.11781 L 314.48964,133.11781 C 314.41714,133.36156 314.28464,133.46781 314.06714,133.46781 C 313.74339,133.46781 313.62339,133.27031 313.67964,132.80531 L 315.68839,132.80531 z M 313.83214,132.09781 C 313.93589,131.74781 314.12589,131.57281 314.38964,131.57281 C 314.66089,131.57281 314.79464,131.75531 314.77089,132.09781 L 313.83214,132.09781"
         id="path559"
         style="fill:#231f20;fill-opacity:1;fill-rule:evenodd;stroke:none" />
      <path
         d="M 317.67339,130.75031 C 316.81339,130.75031 316.08964,131.55781 315.95464,132.66156 C 315.83339,133.65031 316.27714,134.35031 317.02839,134.35031 C 317.25714,134.35031 317.39964,134.31281 317.75964,134.16781 L 317.99339,133.10281 C 317.75214,133.30031 317.61214,133.36156 317.43214,133.36156 C 317.08964,133.36156 316.91339,133.08031 316.96839,132.63031 C 317.03214,132.11281 317.34214,131.74031 317.71464,131.74031 C 317.92464,131.74031 318.05964,131.82406 318.22464,132.04406 L 318.45589,130.98656 C 318.21714,130.82656 317.96839,130.75031 317.67339,130.75031"
         id="path561"
         style="fill:#231f20;fill-opacity:1;fill-rule:nonzero;stroke:none" />
      <path
         d="M 319.41339,128.70281 L 318.19214,134.25156 L 319.18464,134.25156 L 319.53839,132.63781 C 319.67464,132.01406 319.84089,131.79281 320.15964,131.79281 C 320.40589,131.79281 320.49839,131.96781 320.45339,132.33406 C 320.43839,132.46281 320.42214,132.54656 320.34339,132.88906 L 320.04464,134.25156 L 321.03714,134.25156 L 321.41714,132.51656 C 321.47089,132.28031 321.50464,132.09781 321.52214,131.95281 C 321.61714,131.17656 321.36339,130.75031 320.79839,130.75031 C 320.47964,130.75031 320.23714,130.85656 319.86464,131.15406 L 320.40464,128.70281 L 319.41339,128.70281"
         id="path563"
         style="fill:#231f20;fill-opacity:1;fill-rule:nonzero;stroke:none" />
      <path
         d="M 322.32714,130.84906 L 321.57964,134.25156 L 322.57214,134.25156 L 322.91089,132.71406 C 323.05964,132.03656 323.22839,131.79281 323.54714,131.79281 C 323.77589,131.79281 323.88464,131.98406 323.84214,132.33406 C 323.82714,132.45531 323.80839,132.55406 323.76589,132.75281 L 323.43214,134.25156 L 324.42464,134.25156 L 324.84464,132.34156 C 324.89839,132.10531 324.92464,131.93031 324.94339,131.78531 C 325.02464,131.11531 324.76964,130.75031 324.22214,130.75031 C 323.85464,130.75031 323.59839,130.88031 323.18214,131.29031 L 323.31964,130.84906 L 322.32714,130.84906"
         id="path565"
         style="fill:#231f20;fill-opacity:1;fill-rule:nonzero;stroke:none" />
      <path
         d="M 326.84714,128.82531 C 326.51089,128.82531 326.19964,129.15156 326.14964,129.56281 C 326.09839,129.98156 326.32214,130.31656 326.65214,130.31656 C 326.97714,130.31656 327.27714,129.98156 327.32964,129.55531 C 327.37839,129.15156 327.15964,128.82531 326.84714,128.82531 z M 325.95589,130.84906 L 325.20839,134.25156 L 326.20089,134.25156 L 326.94839,130.84906 L 325.95589,130.84906"
         id="path567"
         style="fill:#231f20;fill-opacity:1;fill-rule:evenodd;stroke:none" />
      <path
         d="M 327.95964,128.70281 L 326.73964,134.25156 L 327.73214,134.25156 L 328.08339,132.65406 C 328.27839,133.08031 328.40839,133.33906 328.60089,133.68156 L 328.92839,134.25156 L 330.13714,134.25156 L 329.10714,132.40281 L 330.46964,130.84906 L 329.21839,130.84906 L 328.20964,132.06781 L 328.95214,128.70281 L 327.95964,128.70281"
         id="path569"
         style="fill:#231f20;fill-opacity:1;fill-rule:nonzero;stroke:none" />
      <path
         d="M 313.41589,123.26781 C 312.55589,123.26781 311.83089,124.07406 311.69589,125.17781 C 311.57464,126.16781 312.01839,126.86781 312.77089,126.86781 C 312.99839,126.86781 313.14214,126.83031 313.50214,126.68531 L 313.73464,125.61906 C 313.49464,125.81781 313.35464,125.87781 313.17464,125.87781 C 312.83089,125.87781 312.65589,125.59656 312.71089,125.14781 C 312.77339,124.63031 313.08339,124.25656 313.45714,124.25656 C 313.66714,124.25656 313.80089,124.34031 313.96714,124.56156 L 314.19839,123.50281 C 313.95964,123.34406 313.70964,123.26781 313.41589,123.26781"
         id="path571"
         style="fill:#231f20;fill-opacity:1;fill-rule:nonzero;stroke:none" />
      <path
         d="M 315.99214,123.26781 C 315.03089,123.26781 314.25839,124.02156 314.12964,125.07906 C 313.99839,126.15281 314.55964,126.86781 315.52214,126.86781 C 316.45964,126.86781 317.20214,126.10656 317.33714,125.01031 C 317.46589,123.95281 316.93714,123.26781 315.99214,123.26781 z M 315.58839,125.88656 C 315.25714,125.88656 315.07464,125.60406 315.12839,125.17031 C 315.19214,124.65281 315.51714,124.25656 315.88339,124.25656 C 316.21464,124.25656 316.38464,124.53156 316.33214,124.96531 C 316.26714,125.49781 315.95464,125.88656 315.58839,125.88656"
         id="path573"
         style="fill:#231f20;fill-opacity:1;fill-rule:evenodd;stroke:none" />
      <path
         d="M 318.15839,123.36656 L 317.41089,126.76906 L 318.40339,126.76906 L 318.75839,125.14781 C 318.88214,124.57656 319.07089,124.31031 319.35964,124.31031 C 319.56464,124.31031 319.66589,124.46281 319.63589,124.70656 C 319.62714,124.78281 319.60964,124.87406 319.58339,124.99531 L 319.19089,126.76906 L 320.18339,126.76906 L 320.53839,125.14781 C 320.67339,124.53156 320.83339,124.31031 321.15214,124.31031 C 321.35589,124.31031 321.46214,124.47781 321.42839,124.75156 C 321.42089,124.81281 321.38839,124.98031 321.36089,125.10906 L 320.99464,126.76906 L 321.98089,126.76906 L 322.38089,124.98031 C 322.47464,124.55406 322.49839,124.40906 322.51714,124.25656 C 322.59089,123.65531 322.30714,123.26781 321.79089,123.26781 C 321.40589,123.26781 321.10964,123.42781 320.72089,123.85406 C 320.59964,123.42031 320.40714,123.26781 320.01089,123.26781 C 319.62589,123.26781 319.36214,123.41156 319.01714,123.82281 L 319.15089,123.36656 L 318.15839,123.36656"
         id="path575"
         style="fill:#231f20;fill-opacity:1;fill-rule:nonzero;stroke:none" />
      <path
         d="M 323.36339,123.36656 L 322.20464,128.64906 L 323.19089,128.64906 L 323.73339,126.19031 C 323.93964,126.66281 324.20964,126.86781 324.61839,126.86781 C 325.38839,126.86781 325.99464,126.09156 326.13839,124.91156 C 326.26214,123.89906 325.91339,123.26781 325.23339,123.26781 C 324.88464,123.26781 324.62089,123.40406 324.22339,123.80031 L 324.35464,123.36656 L 323.36339,123.36656 z M 324.37714,125.88656 C 324.05339,125.88656 323.87714,125.60406 323.92964,125.17031 C 323.99339,124.65281 324.31214,124.25656 324.67964,124.25656 C 325.00339,124.25656 325.17464,124.53156 325.12214,124.96531 C 325.05714,125.49781 324.74464,125.88656 324.37714,125.88656"
         id="path577"
         style="fill:#231f20;fill-opacity:1;fill-rule:evenodd;stroke:none" />
      <path
         d="M 328.82839,123.36656 L 328.43714,125.14031 C 328.32839,125.63531 328.16714,125.82531 327.85464,125.82531 C 327.59589,125.82531 327.46964,125.67281 327.50464,125.38406 C 327.51214,125.32281 327.54089,125.19281 327.58339,124.98781 L 327.93839,123.36656 L 326.95214,123.36656 L 326.57589,125.06406 C 326.53464,125.25406 326.50964,125.40656 326.49464,125.52781 C 326.38964,126.38781 326.81839,126.86781 327.67839,126.86781 C 328.16589,126.86781 328.58589,126.72281 328.86464,126.45656 C 329.11589,126.22031 329.26714,125.87031 329.42589,125.16281 L 329.81464,123.36656 L 328.82839,123.36656"
         id="path579"
         style="fill:#231f20;fill-opacity:1;fill-rule:nonzero;stroke:none" />
      <path
         d="M 331.84839,124.33281 L 332.05714,123.36656 L 331.52839,123.36656 L 331.76964,122.27781 L 330.77714,122.27781 L 330.54214,123.36656 L 330.11464,123.36656 L 329.90589,124.33281 L 330.32714,124.33281 L 329.79464,126.76906 L 330.78089,126.76906 L 331.31964,124.33281 L 331.84839,124.33281"
         id="path581"
         style="fill:#231f20;fill-opacity:1;fill-rule:nonzero;stroke:none" />
      <path
         d="M 334.88089,125.32281 C 334.90589,125.17031 334.91964,125.10156 334.93089,125.01781 C 335.06464,123.92156 334.62714,123.26781 333.76214,123.26781 C 332.82339,123.26781 332.08339,124.05906 331.94214,125.20906 C 331.81589,126.24406 332.26214,126.86781 333.13464,126.86781 C 333.59214,126.86781 333.99589,126.70781 334.29839,126.40406 C 334.49714,126.19781 334.58839,126.04531 334.76464,125.63531 L 333.68214,125.63531 C 333.61089,125.87781 333.47714,125.98531 333.26089,125.98531 C 332.93589,125.98531 332.81589,125.78656 332.87214,125.32281 L 334.88089,125.32281 z M 333.02589,124.61531 C 333.12839,124.26406 333.31839,124.08906 333.58339,124.08906 C 333.85339,124.08906 333.98714,124.27281 333.96339,124.61531 L 333.02589,124.61531"
         id="path583"
         style="fill:#231f20;fill-opacity:1;fill-rule:evenodd;stroke:none" />
      <path
         d="M 335.74214,123.36656 L 334.99464,126.76906 L 335.98714,126.76906 L 336.30214,125.32281 C 336.45964,124.63031 336.65089,124.38656 337.06089,124.38656 C 337.23464,124.38656 337.34964,124.43156 337.49339,124.53906 L 337.74214,123.38156 C 337.65964,123.37406 337.59464,123.36656 337.55214,123.36656 C 337.17339,123.36656 336.94839,123.48031 336.59964,123.83031 L 336.73464,123.36656 L 335.74214,123.36656"
         id="path585"
         style="fill:#231f20;fill-opacity:1;fill-rule:nonzero;stroke:none" />
      <path
         d="M 313.57089,116.16656 L 312.82339,119.56906 L 313.81589,119.56906 L 314.17089,117.94781 C 314.29464,117.37781 314.48339,117.11156 314.77214,117.11156 C 314.97589,117.11156 315.07839,117.26281 315.04839,117.50656 C 315.03839,117.58281 315.02214,117.67406 314.99464,117.79656 L 314.60339,119.56906 L 315.59589,119.56906 L 315.95089,117.94781 C 316.08589,117.33156 316.24589,117.11156 316.56339,117.11156 C 316.76839,117.11156 316.87464,117.27906 316.84089,117.55281 C 316.83339,117.61281 316.80089,117.78031 316.77339,117.91031 L 316.40714,119.56906 L 317.39339,119.56906 L 317.79339,117.78031 C 317.88714,117.35406 317.91089,117.21031 317.92964,117.05781 C 318.00339,116.45656 317.71964,116.06781 317.20339,116.06781 C 316.81839,116.06781 316.52214,116.22781 316.13339,116.65406 C 316.01089,116.22031 315.81964,116.06781 315.42339,116.06781 C 315.03839,116.06781 314.77339,116.21281 314.42839,116.62406 L 314.56214,116.16656 L 313.57089,116.16656"
         id="path587"
         style="fill:#231f20;fill-opacity:1;fill-rule:nonzero;stroke:none" />
      <path
         d="M 320.77714,116.16656 L 320.72464,116.55531 C 320.48089,116.18281 320.29089,116.06781 319.91214,116.06781 C 319.09964,116.06781 318.39464,116.91281 318.25464,118.06281 C 318.13464,119.04406 318.49714,119.66906 319.17589,119.66906 C 319.54964,119.66906 319.79839,119.54656 320.14839,119.19656 L 320.03089,119.56906 L 321.02214,119.56906 L 321.76964,116.16656 L 320.77714,116.16656 z M 319.72964,118.68656 C 319.39839,118.68656 319.22339,118.40531 319.27589,117.97156 C 319.33964,117.45406 319.66464,117.05781 320.02464,117.05781 C 320.34964,117.05781 320.52089,117.33156 320.46714,117.76531 C 320.40214,118.29781 320.09089,118.68656 319.72964,118.68656"
         id="path589"
         style="fill:#231f20;fill-opacity:1;fill-rule:evenodd;stroke:none" />
      <path
         d="M 324.39839,116.16656 L 324.31964,116.66156 C 324.09589,116.22781 323.86339,116.06781 323.47839,116.06781 C 322.68464,116.06781 322.02839,116.86031 321.89214,117.97906 C 321.76464,119.01406 322.14214,119.66906 322.86964,119.66906 C 323.18214,119.66906 323.38214,119.56156 323.71214,119.21906 L 323.60089,119.73656 C 323.48089,120.27781 323.26589,120.50531 322.89339,120.50531 C 322.60464,120.50531 322.44339,120.34656 322.44464,120.04906 L 321.49964,120.04906 C 321.48714,120.59781 321.53089,120.82531 321.72839,121.08406 C 321.93464,121.36656 322.26714,121.49531 322.77214,121.49531 C 323.31964,121.49531 323.72339,121.34281 324.02714,121.01531 C 324.31339,120.69656 324.48839,120.24656 324.69214,119.31906 L 325.38464,116.16656 L 324.39839,116.16656 z M 323.35714,118.67906 C 323.03214,118.67906 322.85214,118.38281 322.90839,117.92531 C 322.97089,117.41531 323.26089,117.05781 323.60964,117.05781 C 323.93464,117.05781 324.09964,117.33156 324.04589,117.77281 C 323.97839,118.32156 323.70589,118.67906 323.35714,118.67906"
         id="path591"
         style="fill:#231f20;fill-opacity:1;fill-rule:evenodd;stroke:none" />
      <path
         d="M 327.92714,116.16656 L 327.87339,116.55531 C 327.63089,116.18281 327.43964,116.06781 327.06089,116.06781 C 326.24964,116.06781 325.54464,116.91281 325.40339,118.06281 C 325.28339,119.04406 325.64589,119.66906 326.32589,119.66906 C 326.69839,119.66906 326.94839,119.54656 327.29714,119.19656 L 327.17964,119.56906 L 328.17214,119.56906 L 328.91964,116.16656 L 327.92714,116.16656 z M 326.87839,118.68656 C 326.54839,118.68656 326.37214,118.40531 326.42464,117.97156 C 326.48839,117.45406 326.81339,117.05781 327.17464,117.05781 C 327.49964,117.05781 327.66964,117.33156 327.61714,117.76531 C 327.55214,118.29781 327.23964,118.68656 326.87839,118.68656"
         id="path593"
         style="fill:#231f20;fill-opacity:1;fill-rule:evenodd;stroke:none" />
      <path
         d="M 330.64214,118.60281 L 332.58214,116.16656 L 329.74464,116.16656 L 329.49964,117.13406 L 330.67214,117.13406 L 328.71464,119.56906 L 331.69714,119.56906 L 331.94089,118.60281 L 330.64214,118.60281"
         id="path595"
         style="fill:#231f20;fill-opacity:1;fill-rule:nonzero;stroke:none" />
      <path
         d="M 333.89714,114.14281 C 333.55964,114.14281 333.24964,114.47031 333.19964,114.88031 C 333.14714,115.29906 333.37089,115.63406 333.70214,115.63406 C 334.02714,115.63406 334.32589,115.29906 334.37839,114.87281 C 334.42839,114.47031 334.20964,114.14281 333.89714,114.14281 z M 333.00589,116.16656 L 332.25839,119.56906 L 333.25089,119.56906 L 333.99714,116.16656 L 333.00589,116.16656"
         id="path597"
         style="fill:#231f20;fill-opacity:1;fill-rule:evenodd;stroke:none" />
      <path
         d="M 334.53589,116.16656 L 333.78839,119.56906 L 334.78089,119.56906 L 335.11964,118.03156 C 335.26839,117.35406 335.43714,117.11156 335.75589,117.11156 C 335.98464,117.11156 336.09339,117.30156 336.05089,117.65156 C 336.03589,117.77281 336.01714,117.87156 335.97464,118.07031 L 335.64089,119.56906 L 336.63339,119.56906 L 337.05339,117.65906 C 337.10589,117.42281 337.13339,117.24781 337.15214,117.10281 C 337.23339,116.43406 336.97839,116.06781 336.43089,116.06781 C 336.06339,116.06781 335.80714,116.19781 335.38964,116.60906 L 335.52839,116.16656 L 334.53589,116.16656"
         id="path599"
         style="fill:#231f20;fill-opacity:1;fill-rule:nonzero;stroke:none" />
      <path
         d="M 341.05464,117.13406 L 341.26214,116.16656 L 340.58964,116.16656 L 340.72339,115.56531 C 340.80714,115.17031 340.94339,114.99531 341.17214,114.99531 C 341.29839,114.99531 341.37714,115.04031 341.48214,115.16281 L 341.72089,114.09656 C 341.50089,113.97531 341.33214,113.92906 341.10964,113.92906 C 340.45464,113.92906 339.97839,114.43156 339.78089,115.35281 L 339.60339,116.16656 L 339.18214,116.16656 L 338.97339,117.13406 L 339.38839,117.13406 L 338.84964,119.56906 L 339.84214,119.56906 L 340.38089,117.13406 L 341.05464,117.13406"
         id="path601"
         style="fill:#231f20;fill-opacity:1;fill-rule:nonzero;stroke:none" />
      <path
         d="M 343.46214,116.16656 L 343.07089,117.94031 C 342.96214,118.43531 342.80089,118.62531 342.48839,118.62531 C 342.22964,118.62531 342.10339,118.47406 342.13964,118.18406 C 342.14714,118.12281 342.17464,117.99406 342.21714,117.78906 L 342.57214,116.16656 L 341.58589,116.16656 L 341.21089,117.86406 C 341.16839,118.05531 341.14464,118.20656 341.12964,118.32906 C 341.02464,119.18906 341.45214,119.66906 342.31214,119.66906 C 342.79964,119.66906 343.21964,119.52406 343.49964,119.25781 C 343.75089,119.02156 343.90214,118.67156 344.06089,117.96406 L 344.44839,116.16656 L 343.46214,116.16656 z M 343.93214,114.34031 C 343.66214,114.34031 343.41214,114.61406 343.37214,114.94156 C 343.32964,115.28406 343.51964,115.55781 343.78964,115.55781 C 344.05464,115.55781 344.29714,115.29156 344.33964,114.94906 C 344.37964,114.62156 344.19089,114.34031 343.93214,114.34031 z M 342.71839,114.34031 C 342.44714,114.34031 342.19839,114.60656 342.15714,114.94156 C 342.11464,115.29156 342.29839,115.55781 342.56839,115.55781 C 342.83964,115.55781 343.08214,115.29156 343.12464,114.94906 C 343.16589,114.61406 342.98214,114.34031 342.71839,114.34031"
         id="path603"
         style="fill:#231f20;fill-opacity:1;fill-rule:evenodd;stroke:none" />
      <path
         d="M 344.99589,116.16656 L 344.24839,119.56906 L 345.23964,119.56906 L 345.55589,118.12281 C 345.71214,117.43031 345.90464,117.18656 346.31339,117.18656 C 346.48839,117.18656 346.60214,117.23281 346.74589,117.33906 L 346.99589,116.18281 C 346.91214,116.17531 346.84714,116.16656 346.80589,116.16656 C 346.42714,116.16656 346.20214,116.28156 345.85214,116.63156 L 345.98714,116.16656 L 344.99589,116.16656"
         id="path605"
         style="fill:#231f20;fill-opacity:1;fill-rule:nonzero;stroke:none" />
      <path
         d="M 300.25214,110.68781 L 306.07339,110.03906 L 306.72339,110.68781 L 305.24964,116.68031 L 310.60714,116.03031 L 311.25714,116.68031 L 309.82339,122.51531 L 303.81089,122.51531 L 303.13464,125.26656 C 303.13464,125.26656 302.92714,125.96031 303.00089,126.40031 C 303.05714,126.73656 303.12964,126.93406 303.32714,127.21281 C 303.56089,127.54281 303.76589,127.69906 304.13589,127.86156 C 304.48714,128.01656 305.10589,128.02281 305.10589,128.02281 L 309.15089,127.37406 L 309.79964,128.02281 L 308.20714,134.50781 L 303.31464,134.50781 C 299.02714,134.55031 296.33964,131.60281 296.33964,127.96906 C 296.33964,127.17531 296.56714,125.90656 297.04839,123.71656 L 297.35714,122.47031 L 300.25214,110.68781"
         id="path607"
         style="fill:#bdbcbc;fill-opacity:1;fill-rule:nonzero;stroke:none" />
      <path
         d="M 293.97589,110.68781 L 298.83089,110.03906 L 299.47964,110.68781 L 296.57339,122.51531 L 293.80339,122.51531 L 293.15464,121.86531 L 295.43714,115.87531 L 292.70214,115.87531 L 292.05214,115.22531 L 293.97589,110.68781"
         id="path609"
         style="fill:#bdbcbc;fill-opacity:1;fill-rule:nonzero;stroke:none" />
      <path
         d="M 290.25714,116.68031 L 293.81714,116.03031 L 294.46714,116.68031 L 293.03339,122.51531 L 288.95589,122.51531 C 287.32214,122.51906 285.62464,124.21781 285.62464,125.73031 C 285.62464,126.59281 286.05464,128.01531 287.46464,128.02281 L 293.65964,127.37406 L 294.30839,128.02281 L 292.71464,134.50781 L 286.03714,134.50781 C 281.74089,134.60406 279.08214,131.58156 279.08214,127.94781 C 279.08214,122.80156 283.94339,116.67156 290.25714,116.68031"
         id="path611"
         style="fill:#bdbcbc;fill-opacity:1;fill-rule:nonzero;stroke:none" />
      <g
         transform="matrix(1.25,0,0,-1.25,-139.01411,884.07281)"
         id="g613">
        <g
           clip-path="url(#clipPath617)"
           id="g615">
          <path
             d="M 336.501,603.308 L 334.026,611.405 L 332.505,610.94 L 334.98,602.843 L 336.501,603.308"
             id="path621"
             style="fill:#4f4c4c;fill-opacity:1;fill-rule:nonzero;stroke:none" />
          <path
             d="M 336.567,603.328 L 334.088,611.437 L 333.939,611.392 L 336.418,603.282 L 336.567,603.328"
             id="path623"
             style="fill:#4f4c4c;fill-opacity:1;fill-rule:nonzero;stroke:none" />
          <path
             d="M 336.705,603.37 L 334.225,611.479 L 334.077,611.434 L 336.556,603.324 L 336.705,603.37"
             id="path625"
             style="fill:#5b5859;fill-opacity:1;fill-rule:nonzero;stroke:none" />
          <path
             d="M 336.842,603.412 L 334.363,611.521 L 334.214,611.476 L 336.694,603.367 L 336.842,603.412"
             id="path627"
             style="fill:#676565;fill-opacity:1;fill-rule:nonzero;stroke:none" />
          <path
             d="M 336.98,603.454 L 334.501,611.564 L 334.352,611.518 L 336.831,603.409 L 336.98,603.454"
             id="path629"
             style="fill:#747172;fill-opacity:1;fill-rule:nonzero;stroke:none" />
          <path
             d="M 337.118,603.496 L 334.638,611.606 L 334.49,611.56 L 336.969,603.451 L 337.118,603.496"
             id="path631"
             style="fill:#807e7e;fill-opacity:1;fill-rule:nonzero;stroke:none" />
          <path
             d="M 337.255,603.538 L 334.776,611.648 L 334.628,611.602 L 337.107,603.493 L 337.255,603.538"
             id="path633"
             style="fill:#8c8a8b;fill-opacity:1;fill-rule:nonzero;stroke:none" />
          <path
             d="M 337.393,603.58 L 334.914,611.69 L 334.765,611.644 L 337.245,603.535 L 337.393,603.58"
             id="path635"
             style="fill:#989697;fill-opacity:1;fill-rule:nonzero;stroke:none" />
          <path
             d="M 337.531,603.622 L 335.052,611.732 L 334.903,611.687 L 337.382,603.577 L 337.531,603.622"
             id="path637"
             style="fill:#a5a3a3;fill-opacity:1;fill-rule:nonzero;stroke:none" />
          <path
             d="M 337.669,603.665 L 335.189,611.774 L 335.041,611.729 L 337.52,603.619 L 337.669,603.665"
             id="path639"
             style="fill:#b1afb0;fill-opacity:1;fill-rule:nonzero;stroke:none" />
          <path
             d="M 337.806,603.707 L 335.327,611.816 L 335.178,611.771 L 337.658,603.661 L 337.806,603.707"
             id="path641"
             style="fill:#bdbcbc;fill-opacity:1;fill-rule:nonzero;stroke:none" />
          <path
             d="M 339.373,604.186 L 336.898,612.28 L 335.269,611.782 L 337.743,603.688 L 339.373,604.186"
             id="path643"
             style="fill:#bdbcbc;fill-opacity:1;fill-rule:nonzero;stroke:none" />
          <path
             d="M 341.722,604.904 L 339.251,612.989 L 336.826,612.248 L 339.298,604.163 L 341.722,604.904"
             id="path645"
             style="fill:#bdbcbc;fill-opacity:1;fill-rule:nonzero;stroke:none" />
          <path
             d="M 341.794,604.926 L 339.314,613.035 L 339.166,612.99 L 341.645,604.88 L 341.794,604.926"
             id="path647"
             style="fill:#bdbcbc;fill-opacity:1;fill-rule:nonzero;stroke:none" />
          <path
             d="M 341.937,604.969 L 339.458,613.079 L 339.309,613.034 L 341.788,604.924 L 341.937,604.969"
             id="path649"
             style="fill:#b2b1b1;fill-opacity:1;fill-rule:nonzero;stroke:none" />
          <path
             d="M 342.08,605.013 L 339.601,613.123 L 339.452,613.077 L 341.931,604.968 L 342.08,605.013"
             id="path651"
             style="fill:#a7a6a6;fill-opacity:1;fill-rule:nonzero;stroke:none" />
          <path
             d="M 342.223,605.057 L 339.744,613.167 L 339.595,613.121 L 342.074,605.012 L 342.223,605.057"
             id="path653"
             style="fill:#9c9a9b;fill-opacity:1;fill-rule:nonzero;stroke:none" />
          <path
             d="M 342.366,605.101 L 339.887,613.21 L 339.738,613.165 L 342.217,605.055 L 342.366,605.101"
             id="path655"
             style="fill:#918f90;fill-opacity:1;fill-rule:nonzero;stroke:none" />
          <path
             d="M 342.509,605.144 L 340.03,613.254 L 339.881,613.208 L 342.36,605.099 L 342.509,605.144"
             id="path657"
             style="fill:#868484;fill-opacity:1;fill-rule:nonzero;stroke:none" />
          <path
             d="M 342.652,605.188 L 340.173,613.298 L 340.024,613.252 L 342.503,605.143 L 342.652,605.188"
             id="path659"
             style="fill:#7b7979;fill-opacity:1;fill-rule:nonzero;stroke:none" />
          <path
             d="M 342.795,605.232 L 340.316,613.341 L 340.167,613.296 L 342.646,605.186 L 342.795,605.232"
             id="path661"
             style="fill:#706d6e;fill-opacity:1;fill-rule:nonzero;stroke:none" />
          <path
             d="M 342.938,605.276 L 340.459,613.385 L 340.31,613.34 L 342.79,605.23 L 342.938,605.276"
             id="path663"
             style="fill:#656263;fill-opacity:1;fill-rule:nonzero;stroke:none" />
          <path
             d="M 343.081,605.319 L 340.602,613.429 L 340.453,613.383 L 342.933,605.274 L 343.081,605.319"
             id="path665"
             style="fill:#5a5758;fill-opacity:1;fill-rule:nonzero;stroke:none" />
          <path
             d="M 343.224,605.363 L 340.745,613.473 L 340.596,613.427 L 343.076,605.318 L 343.224,605.363"
             id="path667"
             style="fill:#4f4c4c;fill-opacity:1;fill-rule:nonzero;stroke:none" />
          <path
             d="M 346.552,606.381 L 344.078,614.474 L 340.684,613.437 L 343.159,605.343 L 346.552,606.381"
             id="path669"
             style="fill:#4f4c4c;fill-opacity:1;fill-rule:nonzero;stroke:none" />
        </g>
      </g>
      <path
         d="M 293.97589,110.68781 L 295.92339,121.86531 L 296.57339,122.51531 L 293.80339,122.51531 L 293.15464,121.86531 L 295.43714,115.87531 L 292.70214,115.87531 L 292.05214,115.22531 L 293.97589,110.68781"
         id="path671"
         style="fill:#4f4c4c;fill-opacity:1;fill-rule:evenodd;stroke:none" />
      <path
         d="M 293.32714,110.03906 L 298.83089,110.03906 L 295.92339,121.86531 L 293.15464,121.86531 L 294.78714,115.22531 L 292.05214,115.22531 L 293.32714,110.03906"
         id="path673"
         style="fill:#231f20;fill-opacity:1;fill-rule:nonzero;stroke:none" />
      <path
         d="M 297.91589,120.12781 L 309.17339,121.86531 L 309.82339,122.51531 L 303.81089,122.51531 L 303.16089,121.86531 C 303.12464,122.30531 300.86089,125.40781 301.21214,127.83031 C 301.70089,131.20781 307.55714,133.85781 307.55714,133.85781 L 308.20714,134.50781 L 303.31464,134.50781 C 299.02714,134.55031 296.33964,131.60281 296.33964,127.96906 C 296.33964,127.17531 296.56714,125.90656 297.04839,123.71656 L 297.35714,122.47031 L 297.91589,120.12781"
         id="path675"
         style="fill:#4f4c4c;fill-opacity:1;fill-rule:nonzero;stroke:none" />
      <path
         d="M 299.60339,110.03906 L 306.07339,110.03906 L 304.60089,116.03031 L 310.60714,116.03031 L 309.17339,121.86531 L 303.16089,121.86531 L 302.48589,124.61656 C 302.48589,124.61656 302.27839,125.31156 302.35214,125.75031 C 302.40839,126.08656 302.48089,126.28406 302.67714,126.56281 C 302.91089,126.89281 303.11589,127.05031 303.48589,127.21281 C 303.83714,127.36656 304.45589,127.37406 304.45589,127.37406 L 309.15089,127.37406 L 307.55714,133.85781 L 302.66464,133.85781 C 298.37714,133.90031 295.68964,130.95281 295.68964,127.31906 C 295.68964,126.52656 295.91714,125.25781 296.39839,123.06656 L 296.70839,121.82031 L 299.60339,110.03906"
         id="path677"
         style="fill:#231f20;fill-opacity:1;fill-rule:nonzero;stroke:none" />
      <path
         d="M 287.46464,128.02281 L 292.06589,133.85781 L 292.71464,134.50781 L 286.03714,134.50781 C 281.74089,134.60406 279.08214,131.58156 279.08214,127.94781 C 279.08214,122.80156 286.05464,128.01531 287.46464,128.02281"
         id="path679"
         style="fill:#4f4c4c;fill-opacity:1;fill-rule:nonzero;stroke:none" />
      <path
         d="M 289.60714,116.03031 L 293.81714,116.03031 L 292.38339,121.86531 L 288.30714,121.86531 C 286.67214,121.86906 284.97589,123.56906 284.97589,125.08156 C 284.97589,125.94406 285.40464,127.36531 286.81589,127.37406 L 293.65964,127.37406 L 292.06589,133.85781 L 285.38714,133.85781 C 281.09089,133.95406 278.43214,130.93156 278.43214,127.29781 C 278.43214,122.15281 283.29339,116.02156 289.60714,116.03031"
         id="path681"
         style="fill:#231f20;fill-opacity:1;fill-rule:nonzero;stroke:none" />
    </g>
  </g>
</svg>
